<svg width="100" height="100" xmlns="http://www.w3.org/2000/svg">

 <g>
  <title>background</title>
  <rect fill="none" id="canvas_background" height="402" width="582" y="-1" x="-1"/>
 </g>
 <g>
  <title>Layer 1</title>
  <path fill="#ffffff" d="m95,20.000999c0,-7.881999 -7.115997,-15.000999 -15,-15.000999l-60,0c-7.884,0 -15,7.119 -15,15.000999l0,59.998001c0,7.881996 7.116,15.000999 15.000999,15.000999l29.999001,0l0,-34l-11,0l0,-15l11,0l0,-5.844002c0,-10.078999 7.569,-19.155998 16.875,-19.155998l12.125,0l0,15l-12.125,0c-1.327003,0 -2.875,1.611 -2.875,4.023998l0,5.976002l15,0l0,15l-15,0l0,34l16,0c7.884003,0 15,-7.119003 15,-15.000999l0,-59.998001z" id="Facebook__x28_alt_x29_"/>
 </g>
</svg>