<svg width="16" height="16" xmlns="http://www.w3.org/2000/svg">

 <g>
  <title>background</title>
  <rect fill="none" id="canvas_background" height="402" width="582" y="-1" x="-1"/>
 </g>
 <g>
  <title>Layer 1</title>
  <g id="svg_1">
   <g id="svg_2">
    <g id="svg_3">
     <path id="svg_4" fill="#676767" d="m13,0l-10,0c-1.657,0 -3,1.343 -3,3l0,10c0,1.657 1.343,3 3,3l10,0c1.657,0 3,-1.343 3,-3l0,-10c0,-1.657 -1.343,-3 -3,-3zm-7.232,13.383c-1.771,0 -3.265,-0.721001 -3.265,-1.873c0,-1.169001 1.363,-2.298 3.134,-2.297l0.553,-0.005c-0.242,-0.235001 -0.434,-0.524 -0.434,-0.881001c0,-0.212 0.068,-0.414999 0.162,-0.596l-0.295,0.01c-1.455,0 -2.429,-1.035 -2.429,-2.318c0,-1.255 1.345,-2.338 2.775,-2.338l3.190001,0l-0.716001,0.516l-1.011,0c0.671,0.258 1.028,1.04 1.028,1.842c0,0.673 -0.373,1.253 -0.9,1.665c-0.515,0.403 -0.612,0.571 -0.612,0.913c0,0.292 0.552,0.788 0.84,0.993c0.842999,0.596 1.114,1.149 1.114,2.072001c0,1.151999 -1.115,2.297 -3.134,2.297zm8.232,-6.364l-2,0l0,1.997l-0.999,0l0,-1.997l-2.001,0l0,-1.019l2.001,0l0,-2l0.999,0l0,2l2,0l0,1.019z"/>
     <path id="svg_5" fill="#676767" d="m7.314,5.505c-0.142,-1.078 -0.923,-1.944 -1.744,-1.969c-0.821,-0.024 -1.372,0.801 -1.23,1.881c0.142,1.079 0.923,1.974 1.745,1.998c0.82,0.025 1.372,-0.83 1.229,-1.91z"/>
     <path id="svg_6" fill="#676767" d="m6.769,9.639c-0.242,-0.078 -0.509,-0.125 -0.794,-0.128c-1.224,-0.013 -2.32,0.746 -2.32,1.659c0,0.932 0.884,1.706 2.108,1.706c1.721,0 2.32,-0.728001 2.32,-1.658c0,-0.112 -0.015,-0.222 -0.039001,-0.329c-0.134,-0.528 -0.611,-0.789 -1.275,-1.25z"/>
    </g>
   </g>
  </g>
  <g id="svg_7"/>
  <g id="svg_8"/>
  <g id="svg_9"/>
  <g id="svg_10"/>
  <g id="svg_11"/>
  <g id="svg_12"/>
  <g id="svg_13"/>
  <g id="svg_14"/>
  <g id="svg_15"/>
  <g id="svg_16"/>
  <g id="svg_17"/>
  <g id="svg_18"/>
  <g id="svg_19"/>
  <g id="svg_20"/>
  <g id="svg_21"/>
 </g>
</svg>