<svg width="100" height="100" xmlns="http://www.w3.org/2000/svg">

 <g>
  <title>background</title>
  <rect fill="none" id="canvas_background" height="402" width="582" y="-1" x="-1"/>
 </g>
 <g>
  <title>Layer 1</title>
  <path fill="#ffffff" d="m84.803001,46.563999c5.055,-0.417 8.483002,-2.715 9.803001,-5.833c-1.823997,1.119999 -7.484001,2.341 -10.610001,1.178001c-0.153,-0.734001 -0.323997,-1.432003 -0.491997,-2.062c-2.382004,-8.746 -10.537003,-15.792002 -19.082001,-14.941002c0.690994,-0.278999 1.391998,-0.539 2.091995,-0.771999c0.940002,-0.337 6.459,-1.235001 5.590004,-3.183001c-0.733002,-1.712999 -7.474998,1.295 -8.744003,1.688002c1.675003,-0.630001 4.446999,-1.714001 4.743004,-3.640001c-2.567001,0.352001 -5.087002,1.566 -7.034004,3.331001c0.702999,-0.757002 1.236,-1.679001 1.348999,-2.672001c-6.848,4.375002 -10.848,13.195002 -14.084999,21.750002c-2.542,-2.463001 -4.795002,-4.403 -6.816002,-5.48c-5.669998,-3.041 -12.448997,-6.213001 -23.090998,-10.164c-0.327,3.521 1.741001,8.203001 7.699999,11.316c-1.291,-0.173 -3.651999,0.212997 -5.539999,0.665001c0.768999,4.033997 3.279999,7.356998 10.079,8.963997c-3.107,0.205002 -4.712999,0.912003 -6.167999,2.436001c1.414999,2.805 4.868,6.107002 11.079998,5.429001c-6.906,2.977001 -2.815998,8.489998 2.804001,7.667c-9.587,9.901997 -24.702001,9.174999 -33.381001,0.892998c22.660999,30.879002 71.920998,18.261997 79.262001,-11.480999c5.499001,0.047001 8.733002,-1.905003 10.737999,-4.056999c-3.168999,0.537998 -7.761002,-0.018002 -10.196999,-1.032001z" id="Twitter__x28_alt_x29_"/>
 </g>
</svg>