<svg width="100" height="100" xmlns="http://www.w3.org/2000/svg">

 <g>
  <title>background</title>
  <rect fill="none" id="canvas_background" height="402" width="582" y="-1" x="-1"/>
 </g>
 <g>
  <title>Layer 1</title>
  <path fill="#676767" d="m70.709,15.029c1.169998,2.657001 1.928001,7.070001 0.796997,10.301c4.625,3.948999 6.214005,13.549002 3.982002,21.393999c6.592003,0.503002 14.443001,-0.242001 19.512001,1.781002c-4.737999,-0.609001 -11.209,-1.804001 -17.32,-1.388c-1.157997,0.078999 -2.874001,-0.043999 -2.790001,1.584999c7.074997,0.556 14.104004,1.16 19.913002,2.973c-5.761002,-0.940998 -12.753998,-2.373997 -19.913002,-2.573997c-2.957001,5.834999 -8.906998,8.702999 -17.121998,9.306999c0.882999,1.921001 2.573997,2.653 2.987,5.743999c0.616001,4.618004 -0.964001,11.381004 0.595001,14.459c0.747997,1.474998 1.966999,1.514 2.788998,2.775002c-2.011997,2.380997 -7.000999,-0.266998 -7.568001,-2.775002c-0.973,-4.294998 1.482002,-10.954002 -1.192997,-13.864998c0.188999,4.683998 -1.108002,11.264 0.198997,15.448997c0.515003,1.646004 2.002003,2.281006 1.593002,3.764999c-9.352001,0.950005 -5.444,-12.103996 -6.972,-19.808998c-1.410999,0.099998 -0.791,2.112999 -0.796001,2.972c-0.040001,7.524002 1.540001,17.844002 -6.57,16.836998c-0.237,-1.581001 1.088001,-2.118996 1.592999,-3.562996c1.479,-4.234001 -0.276997,-10.542 0.401001,-15.651001c-3.094997,2.333 0.325001,10.479996 -1.592999,14.656998c-1.105,2.403999 -4.666,3.450005 -7.367001,2.376999c0.352001,-1.790001 2.200001,-1.500999 2.984001,-3.168999c1.095997,-2.324997 0.007999,-5.673996 0.398998,-9.111c-5.729,1.142998 -10.173,-0.166 -12.348,-3.764c-0.973,-1.614998 -1.214001,-3.52 -2.389999,-4.951c-1.17,-1.431999 -3.040001,-1.625 -3.582001,-3.563999c7.094999,-1.708 7.367001,7.302002 13.738998,7.525002c1.954002,0.070999 2.970001,-0.564003 4.778,-0.989002c0.506001,-2.271999 1.589001,-3.966 3.186001,-5.153c-7.928997,-1.084999 -14.476999,-3.554001 -17.521997,-9.503998c-7.208,0.355 -13.804001,1.316998 -19.913001,2.771c5.545001,-2.014 12.383999,-2.736 19.715001,-2.973c-0.432001,-2.596001 -4.219,-1.882 -6.57,-1.782001c-4.369003,0.194 -9.869003,0.737 -13.342003,1.389c5.034,-1.795002 12.098,-1.570999 18.917999,-1.584999c-2.086,-6.540001 -1.363001,-16.929003 3.185999,-20.798c-1.289,-3.249001 -0.889,-8.563 0.796001,-11.093001c5.079,0.228 8.158998,2.443 11.35,4.557c3.957001,-1.125 8.118,-1.684999 13.540001,-1.387001c2.279999,0.126001 4.652,1.151001 6.368999,0.989c1.685001,-0.157999 3.542,-2.049 5.177998,-2.771c2.131004,-0.941 3.934006,-1.3 6.372002,-1.388z" id="Github__x28_alt_x29_"/>
 </g>
</svg>